<svg width="956" height="589" viewBox="0 0 956 589" fill="yellow" xmlns="http://www.w3.org/2000/svg">
<path d="M0 0C0 0 168.601 75.3614 76.9996 224.514C-14.6014 373.667 707.256 282.232 707.256 282.232L679.65 417.105L725.964 515.419L955.251 468.467V0H0Z" fill="#EFEEFF"/>
<path d="M552.643 261.571C493.597 260.239 437.431 248.165 383.753 234.925C330.074 221.684 277.051 206.945 219.445 199.951C182.393 195.454 139.974 194.788 110.255 207.445C81.4519 219.603 72.2873 240.504 67.1813 259.989C63.5155 274.645 61.2898 290.05 71.5018 303.79C78.7025 313.283 91.402 321.277 100.174 330.437C130.679 362.08 109.077 401.218 75.9531 432.195C60.5042 446.767 42.5678 460.59 30.5229 476.079C18.478 491.567 13.1102 509.221 23.584 525.042C33.9269 540.614 58.5404 552.439 85.3796 560.599C139.843 577.337 203.865 582.25 266.446 584.915C404.831 590.91 544.002 588.245 682.78 585.747C734.064 585.463 785.269 583.127 836.091 578.752C864.109 575.921 893.042 571.425 913.466 560.766C925.882 554.5 934.257 545.557 937.007 535.629C939.757 525.702 936.692 515.477 928.392 506.889C899.327 478.244 819.071 471.082 798.778 440.272C787.519 423.368 799.04 404.465 815.274 388.727C850.1 355.002 908.491 325.441 911.633 286.886C913.728 260.406 885.58 233.925 842.244 221.435C796.683 208.361 733.578 210.026 700.062 231.677C665.368 253.994 604.62 262.654 552.643 261.488V261.571Z" fill="#EFEEFF"/>
</svg>