<?xml version="1.0" encoding="utf-8"?>
<!-- Generator: Adobe Illustrator 24.1.1, SVG Export Plug-In . SVG Version: 6.00 Build 0)  -->
<svg version="1.1" id="Layer_1" xmlns="http://www.w3.org/2000/svg" xmlns:xlink="http://www.w3.org/1999/xlink" x="0px" y="0px"
	 viewBox="0 0 1000 1000" style="enable-background:new 0 0 1000 1000;" xml:space="preserve">
<style type="text/css">
	.st0{fill:#803EFF;}
	.st1{fill:#1976D2;}
	.st2{fill:#155A93;}
	.st3{fill:#0F1A57;}
</style>
<g>
	<g>
		<polygon class="st0" points="377.7,509.55 368.51,514.86 326.23,490.45 335.43,485.14 351.54,494.45 		"/>
		<polygon class="st0" points="412.63,529.72 351.97,564.74 326.66,550.13 276.2,521 276.2,480.66 299.66,494.21 300.5,494.69 
			291.31,500 285.4,496.59 285.4,515.69 335.71,544.73 351.97,554.12 394.24,529.72 377.7,520.17 386.89,514.86 		"/>
		<polygon class="st0" points="427.74,479.02 427.74,519.34 403.43,505.31 412.63,500 418.54,503.41 418.54,484.32 351.96,445.88 
			309.7,470.29 326.23,479.84 317.04,485.14 291.31,470.29 351.96,435.26 		"/>
		<path class="st1" d="M368.51,514.86l-16.54,9.55L309.7,500l16.53-9.55l-9.19-5.31l-16.54,9.55l-9.19,5.31l60.66,35.02h0.01
			l25.72-14.85L368.51,514.86z M411.62,499.42l-59.66-34.44l-25.72,14.85l-0.01,0.01l9.2,5.3l16.53-9.55L394.24,500l-16.54,9.55
			l9.19,5.31l16.54-9.55l9.2-5.31L411.62,499.42z"/>
		<polygon class="st2" points="386.89,514.86 377.7,520.17 368.51,514.86 377.7,509.55 		"/>
		<polygon class="st2" points="335.43,485.14 326.23,490.45 317.04,485.14 326.23,479.84 		"/>
	</g>
	<g>
		<g>
			<path class="st3" d="M483.03,508.14c-3.96-1.73-7.08-4.19-9.34-7.38c-2.27-3.18-3.4-6.9-3.4-11.15h12.95
				c0.28,3.18,1.54,5.8,3.77,7.86c2.23,2.05,5.36,3.08,9.4,3.08c4.18,0,7.43-1.01,9.77-3.03c2.34-2.02,3.5-4.62,3.5-7.8
				c0-2.48-0.73-4.49-2.18-6.05c-1.45-1.56-3.26-2.76-5.41-3.61c-2.16-0.85-5.15-1.77-8.97-2.76c-4.81-1.27-8.72-2.56-11.73-3.87
				c-3.01-1.31-5.57-3.34-7.7-6.1c-2.12-2.76-3.18-6.44-3.18-11.04c0-4.25,1.06-7.96,3.18-11.15c2.12-3.18,5.1-5.63,8.92-7.32
				c3.82-1.7,8.24-2.55,13.27-2.55c7.15,0,13,1.79,17.57,5.36c4.57,3.58,7.09,8.48,7.59,14.7h-13.38c-0.21-2.69-1.49-4.99-3.82-6.9
				c-2.34-1.91-5.41-2.87-9.24-2.87c-3.47,0-6.3,0.89-8.49,2.65c-2.19,1.77-3.29,4.32-3.29,7.64c0,2.27,0.69,4.12,2.07,5.57
				c1.38,1.45,3.13,2.6,5.26,3.45c2.12,0.85,5.02,1.77,8.71,2.76c4.88,1.35,8.86,2.69,11.94,4.03c3.08,1.34,5.7,3.42,7.86,6.21
				c2.16,2.8,3.24,6.53,3.24,11.2c0,3.75-1.01,7.29-3.03,10.62c-2.02,3.33-4.96,6-8.81,8.01c-3.86,2.02-8.4,3.02-13.64,3.02
				C491.45,510.74,486.99,509.88,483.03,508.14z"/>
			<path class="st3" d="M535.85,464.67c2.44-4.53,5.77-8.05,9.98-10.56c4.21-2.51,8.86-3.77,13.96-3.77c4.6,0,8.62,0.9,12.05,2.71
				c3.43,1.8,6.17,4.05,8.23,6.74v-8.49h12.21v58.49h-12.21v-8.71c-2.05,2.76-4.85,5.06-8.39,6.9c-3.54,1.84-7.57,2.76-12.1,2.76
				c-5.03,0-9.63-1.29-13.8-3.87c-4.18-2.58-7.48-6.19-9.93-10.83c-2.44-4.63-3.66-9.89-3.66-15.77
				C532.18,474.4,533.4,469.2,535.85,464.67z M577.57,469.97c-1.66-2.97-3.84-5.24-6.53-6.79c-2.69-1.56-5.59-2.34-8.71-2.34
				c-3.12,0-6.02,0.76-8.71,2.28c-2.69,1.52-4.87,3.75-6.53,6.69c-1.66,2.94-2.49,6.42-2.49,10.46c0,4.03,0.83,7.57,2.49,10.62
				c1.66,3.04,3.86,5.36,6.58,6.95c2.72,1.59,5.61,2.39,8.65,2.39c3.11,0,6.01-0.78,8.71-2.33c2.69-1.56,4.87-3.84,6.53-6.85
				c1.66-3.01,2.49-6.53,2.49-10.56C580.06,476.45,579.23,472.95,577.57,469.97z"/>
			<path class="st3" d="M607.82,464.67c2.44-4.53,5.77-8.05,9.98-10.56c4.21-2.51,8.86-3.77,13.96-3.77c4.6,0,8.62,0.9,12.05,2.71
				c3.43,1.8,6.17,4.05,8.23,6.74v-8.49h12.21v58.49h-12.21v-8.71c-2.05,2.76-4.85,5.06-8.39,6.9c-3.54,1.84-7.57,2.76-12.1,2.76
				c-5.03,0-9.63-1.29-13.8-3.87c-4.18-2.58-7.48-6.19-9.93-10.83c-2.44-4.63-3.66-9.89-3.66-15.77
				C604.16,474.4,605.38,469.2,607.82,464.67z M649.54,469.97c-1.66-2.97-3.84-5.24-6.53-6.79c-2.69-1.56-5.59-2.34-8.71-2.34
				c-3.12,0-6.02,0.76-8.71,2.28c-2.69,1.52-4.87,3.75-6.53,6.69c-1.66,2.94-2.49,6.42-2.49,10.46c0,4.03,0.83,7.57,2.49,10.62
				c1.66,3.04,3.86,5.36,6.58,6.95c2.72,1.59,5.61,2.39,8.65,2.39c3.11,0,6.01-0.78,8.71-2.33c2.69-1.56,4.87-3.84,6.53-6.85
				c1.66-3.01,2.49-6.53,2.49-10.56C652.04,476.45,651.2,472.95,649.54,469.97z"/>
			<path class="st3" d="M689.03,508.24c-3.65-1.66-6.53-3.93-8.65-6.79c-2.12-2.87-3.26-6.07-3.4-9.61h12.53
				c0.21,2.48,1.4,4.55,3.56,6.21c2.16,1.66,4.86,2.49,8.12,2.49c3.4,0,6.03-0.65,7.91-1.96c1.87-1.31,2.81-2.99,2.81-5.04
				c0-2.19-1.05-3.82-3.13-4.88c-2.09-1.06-5.4-2.23-9.93-3.5c-4.39-1.2-7.96-2.37-10.72-3.5c-2.76-1.13-5.15-2.87-7.17-5.2
				c-2.02-2.34-3.03-5.41-3.03-9.24c0-3.11,0.92-5.96,2.76-8.55c1.84-2.58,4.48-4.62,7.91-6.11c3.43-1.49,7.38-2.23,11.84-2.23
				c6.65,0,12.01,1.68,16.08,5.04c4.07,3.36,6.25,7.95,6.53,13.75h-12.1c-0.21-2.62-1.27-4.71-3.18-6.26
				c-1.91-1.55-4.5-2.33-7.75-2.33c-3.19,0-5.63,0.6-7.33,1.8c-1.7,1.2-2.55,2.8-2.55,4.78c0,1.56,0.57,2.87,1.7,3.93
				c1.13,1.06,2.51,1.9,4.14,2.5c1.63,0.6,4.03,1.36,7.22,2.28c4.25,1.13,7.73,2.28,10.46,3.45c2.72,1.17,5.08,2.88,7.06,5.15
				c1.98,2.27,3.01,5.27,3.08,9.02c0,3.33-0.92,6.3-2.76,8.92c-1.84,2.62-4.44,4.67-7.8,6.16c-3.36,1.48-7.31,2.23-11.84,2.23
				C696.8,510.74,692.68,509.91,689.03,508.24z"/>
		</g>
		<g>
			<path class="st3" d="M476.57,563.43c-1.94-0.87-3.47-2.08-4.57-3.63c-1.1-1.55-1.68-3.34-1.71-5.37h5.18
				c0.18,1.75,0.9,3.22,2.16,4.41c1.26,1.2,3.11,1.79,5.53,1.79c2.32,0,4.14-0.58,5.48-1.74c1.34-1.16,2-2.64,2-4.46
				c0-1.42-0.39-2.58-1.18-3.47c-0.78-0.89-1.76-1.57-2.94-2.03c-1.18-0.46-2.76-0.96-4.76-1.5c-2.46-0.64-4.43-1.28-5.91-1.92
				c-1.48-0.64-2.74-1.65-3.8-3.02c-1.05-1.37-1.58-3.22-1.58-5.53c0-2.03,0.52-3.83,1.55-5.4c1.03-1.57,2.49-2.78,4.36-3.63
				c1.87-0.86,4.02-1.28,6.44-1.28c3.49,0,6.35,0.87,8.58,2.62c2.23,1.75,3.48,4.06,3.77,6.95h-5.34c-0.18-1.42-0.93-2.68-2.24-3.77
				c-1.32-1.09-3.07-1.63-5.24-1.63c-2.03,0-3.69,0.53-4.97,1.58c-1.28,1.05-1.92,2.52-1.92,4.41c0,1.36,0.38,2.46,1.15,3.31
				c0.77,0.86,1.71,1.51,2.83,1.95c1.12,0.45,2.7,0.96,4.73,1.52c2.46,0.68,4.44,1.34,5.93,2c1.5,0.66,2.78,1.68,3.85,3.05
				c1.07,1.37,1.6,3.23,1.6,5.59c0,1.82-0.48,3.53-1.44,5.13c-0.96,1.6-2.39,2.91-4.28,3.9c-1.89,1-4.12,1.5-6.68,1.5
				C480.72,564.74,478.51,564.3,476.57,563.43z"/>
			<path class="st3" d="M508.67,539.46v17.26c0,1.42,0.3,2.43,0.91,3.02c0.61,0.59,1.66,0.88,3.15,0.88h3.58v4.11h-4.38
				c-2.71,0-4.74-0.62-6.09-1.87c-1.35-1.25-2.03-3.3-2.03-6.15v-17.26h-3.8v-4.01h3.8v-7.38h4.86v7.38h7.64v4.01H508.67z"/>
			<path class="st3" d="M522.19,541.62c1.21-2.26,2.88-4.02,5-5.26c2.12-1.25,4.48-1.87,7.08-1.87c2.57,0,4.79,0.55,6.68,1.66
				c1.89,1.1,3.3,2.49,4.22,4.17v-5.34h4.92v29.29h-4.92v-5.45c-0.96,1.71-2.4,3.13-4.3,4.25c-1.91,1.12-4.12,1.68-6.65,1.68
				c-2.6,0-4.95-0.64-7.06-1.92c-2.1-1.28-3.76-3.08-4.97-5.4c-1.21-2.32-1.82-4.95-1.82-7.91
				C520.37,546.51,520.98,543.89,522.19,541.62z M543.84,543.79c-0.89-1.64-2.09-2.89-3.61-3.77c-1.52-0.87-3.18-1.31-5-1.31
				s-3.47,0.43-4.97,1.28c-1.5,0.86-2.69,2.1-3.58,3.74c-0.89,1.64-1.34,3.56-1.34,5.77c0,2.25,0.45,4.2,1.34,5.85
				c0.89,1.66,2.08,2.92,3.58,3.79c1.5,0.87,3.15,1.31,4.97,1.31s3.48-0.44,5-1.31c1.51-0.87,2.72-2.14,3.61-3.79
				c0.89-1.66,1.34-3.59,1.34-5.8S544.73,545.43,543.84,543.79z"/>
			<path class="st3" d="M566.85,536.3c1.59-0.93,3.52-1.39,5.8-1.39v5.02h-1.28c-5.45,0-8.18,2.96-8.18,8.87v15.93h-4.86v-29.29
				h4.86v4.76C564.04,538.53,565.26,537.23,566.85,536.3z"/>
			<path class="st3" d="M584.19,539.46v17.26c0,1.42,0.3,2.43,0.91,3.02c0.61,0.59,1.66,0.88,3.15,0.88h3.58v4.11h-4.38
				c-2.71,0-4.74-0.62-6.09-1.87s-2.03-3.3-2.03-6.15v-17.26h-3.8v-4.01h3.8v-7.38h4.86v7.38h7.64v4.01H584.19z"/>
			<path class="st3" d="M624.28,551.43h-23.41c0.18,2.89,1.17,5.14,2.97,6.76c1.8,1.62,3.98,2.43,6.55,2.43
				c2.1,0,3.86-0.49,5.26-1.47c1.41-0.98,2.4-2.29,2.97-3.93h5.24c-0.78,2.82-2.35,5.1-4.7,6.87c-2.35,1.76-5.27,2.64-8.77,2.64
				c-2.78,0-5.26-0.62-7.46-1.87c-2.19-1.25-3.91-3.02-5.16-5.32c-1.25-2.3-1.87-4.96-1.87-7.99c0-3.03,0.61-5.68,1.82-7.96
				c1.21-2.28,2.91-4.04,5.1-5.26c2.19-1.23,4.71-1.84,7.56-1.84c2.78,0,5.24,0.61,7.38,1.82c2.14,1.21,3.79,2.88,4.94,5
				c1.16,2.12,1.74,4.52,1.74,7.19C624.44,549.42,624.39,550.4,624.28,551.43z M618.19,542.69c-0.82-1.34-1.93-2.35-3.34-3.05
				c-1.41-0.69-2.97-1.04-4.68-1.04c-2.46,0-4.55,0.78-6.28,2.35c-1.73,1.57-2.72,3.74-2.97,6.52h18.49
				C619.42,545.62,619,544.03,618.19,542.69z"/>
			<path class="st3" d="M639.38,536.3c1.59-0.93,3.52-1.39,5.8-1.39v5.02h-1.28c-5.45,0-8.18,2.96-8.18,8.87v15.93h-4.86v-29.29
				h4.86v4.76C636.57,538.53,637.79,537.23,639.38,536.3z"/>
			<path class="st3" d="M685.26,564.74l-15.34-17v17h-4.86v-37.25h4.86v17.26l15.39-17.26h6.15l-16.89,18.65l17.05,18.6H685.26z"/>
			<path class="st3" d="M697.24,529.73c-0.64-0.64-0.96-1.42-0.96-2.35s0.32-1.71,0.96-2.35c0.64-0.64,1.42-0.96,2.35-0.96
				c0.89,0,1.65,0.32,2.27,0.96c0.62,0.64,0.94,1.42,0.94,2.35s-0.31,1.71-0.94,2.35c-0.62,0.64-1.38,0.96-2.27,0.96
				C698.66,530.69,697.88,530.37,697.24,529.73z M701.94,535.45v29.29h-4.86v-29.29H701.94z"/>
			<path class="st3" d="M716.16,539.46v17.26c0,1.42,0.3,2.43,0.91,3.02c0.61,0.59,1.66,0.88,3.15,0.88h3.58v4.11h-4.38
				c-2.71,0-4.74-0.62-6.09-1.87s-2.03-3.3-2.03-6.15v-17.26h-3.8v-4.01h3.8v-7.38h4.86v7.38h7.64v4.01H716.16z"/>
		</g>
	</g>
</g>
</svg>
