<?xml version="1.0" encoding="utf-8"?>
<!-- Generator: Adobe Illustrator 24.1.1, SVG Export Plug-In . SVG Version: 6.00 Build 0)  -->
<svg version="1.1" id="Layer_1" xmlns="http://www.w3.org/2000/svg" xmlns:xlink="http://www.w3.org/1999/xlink" x="0px" y="0px"
	 viewBox="0 0 512 512" style="enable-background:new 0 0 512 512;" xml:space="preserve">
<style type="text/css">
	.st0{fill:#803EFF;}
	.st1{fill:#1976D2;}
	.st2{fill:#155A93;}
</style>
<g>
	<polygon class="st0" points="301.38,272.84 285.17,282.21 210.6,239.16 226.83,229.79 255.24,246.21 	"/>
	<polygon class="st0" points="362.99,308.42 256,370.19 211.36,344.42 122.36,293.04 122.36,221.89 163.74,245.79 165.22,246.63 
		149.01,256 138.59,249.99 138.59,283.67 227.32,334.89 256,351.45 330.55,308.42 301.38,291.57 317.59,282.21 	"/>
	<polygon class="st0" points="389.64,219 389.64,290.11 346.76,265.37 362.99,256 373.41,262.01 373.41,228.34 255.98,160.55 
		181.45,203.6 210.6,220.44 194.39,229.79 149.01,203.6 255.98,141.81 	"/>
	<path class="st1" d="M285.17,282.21L256,299.05L181.45,256l29.15-16.84l-16.21-9.37l-29.17,16.84L149.01,256L256,317.77h0.02
		l45.36-26.19L285.17,282.21z M361.21,254.98l-105.23-60.74l-45.36,26.19l-0.02,0.02l16.23,9.35l29.15-16.84L330.55,256
		l-29.17,16.84l16.21,9.37l29.17-16.84l16.23-9.37L361.21,254.98z"/>
	<polygon class="st2" points="317.59,282.21 301.38,291.57 285.17,282.21 301.38,272.84 	"/>
	<polygon class="st2" points="226.83,229.79 210.6,239.16 194.39,229.79 210.6,220.44 	"/>
</g>
</svg>
